<svg id="maintainer_logo" data-name="Layer 1" xmlns="http://www.w3.org/2000/svg" viewBox="0 0 128 128"><title>IMG logo</title><path fill="#F8D16C" d="M112.1372,46.4979H92.4047A12.0384,12.0384,0,0,0,68.44,46.376q-.0062.0609-.0117.1219h-19.8a12.0754,12.0754,0,0,0-11.8592-10.942,10.53,10.53,0,0,0-3.03.3511,11.9693,11.9693,0,0,0-2.7505,1.0577,12.1591,12.1591,0,0,0-4.2892,3.8442,12.0239,12.0239,0,0,0-2.048,5.689H4.9207A31.3036,31.3036,0,0,1,9.5278,31.1057,32.0782,32.0782,0,0,1,21.097,19.927a31.723,31.723,0,0,1,15.5424-4.073h.0919a31.6749,31.6749,0,0,1,21.0655,8.0834l.7311.6545.7311-.6545a31.7341,31.7341,0,0,1,52.8782,22.5605Z"/><path fill="#F8D16C" d="M24.6444,15.854l-.4071.1576A34.123,34.123,0,0,0,5.0586,35.19l-.1576.4072V15.854Z"/><path fill="#F8D16C" d="M123.099,80.4251A31.7783,31.7783,0,0,1,92.4551,112.146V92.4135a12.04,12.04,0,0,0,8.7994-18.846q-.1281-.184-.2629-.3634l-.6567-.8755-.8755.6566A31.7457,31.7457,0,0,1,48.6978,48.6868H68.4259a12.04,12.04,0,0,0,23.9788,0h19.7325a31.8883,31.8883,0,0,1-.8383,6.2535l-.1554.6589.5209.4334A31.6679,31.6679,0,0,1,123.099,80.4251Z"/></svg>